<?xml version="1.0" encoding="utf-8"?>
<!-- Svg Vector Icons : http://www.onlinewebfonts.com/icon -->
<!DOCTYPE svg PUBLIC "-//W3C//DTD SVG 1.1//EN" "http://www.w3.org/Graphics/SVG/1.1/DTD/svg11.dtd">
<svg version="1.1" xmlns="http://www.w3.org/2000/svg" xmlns:xlink="http://www.w3.org/1999/xlink" x="0px" y="0px" viewBox="0 0 1000 1000" enable-background="new 0 0 1000 1000" xml:space="preserve">
<metadata> Svg Vector Icons : http://www.onlinewebfonts.com/icon </metadata>
<g><g transform="translate(0.000000,511.000000) scale(0.100000,-0.100000)"><path d="M2863.7,4974.1c-70.2-26.8-315.7-262.1-1108-1052.3c-584-583.9-1035.8-1050.3-1058.5-1093.6c-35.1-72.2-37.1-235.2-43.3-3592.4l-4.1-3514l53.6-121.7c57.8-125.9,194-272.4,319.8-340.5c68.1-37.2,196-39.2,3237.5-45.4l3165.3-4.1l109.4,51.6c134.1,68.1,260,206.3,315.7,352.8c39.2,109.4,41.3,154.8,41.3,1590.9v1477.4L7754-1593.7l-140.3-276.5l-10.3-1186.5c-8.3-1052.3-14.5-1192.6-45.4-1248.4c-43.3-80.5-115.6-146.5-187.8-173.3c-78.4-30.9-6058.2-30.9-6167.6-2.1c-92.9,26.8-212.5,156.8-241.4,264.1c-16.5,55.7-20.6,1126.6-18.6,3431.5l6.2,3351l856.3,10.3c943,12.4,926.5,8.3,1081.2,144.4c41.3,37.1,101.1,111.4,132.1,163l55.7,94.9l10.3,866.6l10.3,866.6h2156.3c2026.3,0,2162.5-2.1,2214-37.1c130-84.6,127.9-64,134.1-1000.8c6.2-796.5,8.2-852.2,41.3-839.8c18.6,8.3,78.4,24.8,132.1,35.1c70.1,16.5,99,33,107.3,66c6.2,22.7,12.4,406.5,12.4,848.1c0,802.7,0,804.7-49.5,910c-26.8,55.7-86.6,136.2-136.2,179.5c-171.3,146.5-26.8,138.3-2515.3,136.2C3134,5009.2,2944.2,5007.1,2863.7,4974.1z M2791.5,3795.9c-6.2-695.4-8.3-724.3-49.5-780c-24.8-31-74.3-76.3-113.5-99c-66-39.2-113.5-41.3-765.5-47.5c-383.8-4.1-697.4,0-697.4,6.2c0,20.6,1597.1,1640.4,1615.7,1640.4C2789.4,4516,2795.6,4192.1,2791.5,3795.9z"/><path d="M8377.2,3034.5c-94.9-22.7-150.6-88.7-247.6-303.3c-78.4-171.3-107.3-214.6-132.1-204.3c-138.2,57.8-148.6,59.8-200.1,28.9c-41.3-24.8-191.9-315.7-670.6-1310.3c-338.4-703.6-617-1304.1-617-1333c0-105.2,123.8-158.9,191.9-84.6c18.6,20.6,282.7,553,584,1182.3c303.3,629.3,569.5,1163.8,592.2,1190.6c22.7,24.8,53.7,45.4,66,45.4c14.5,0,262.1-115.6,553-255.9l526.2-255.9l154.8,324c185.7,385.9,187.8,396.2,158.9,484.9c-33,101.1-78.4,132.1-464.3,315.7C8515.4,3030.4,8451.5,3053.1,8377.2,3034.5z"/><path d="M7851,1581.9c-88.7-185.7-323.9-674.7-524.1-1089.5C7128.8,77.6,6941-291.7,6910.1-330.9c-59.9-74.3-194-144.4-276.5-146.5c-47.5,0-80.5-59.8-392.1-709.8c-185.7-390-338.4-718.1-336.3-726.3c2.1-10.3,247.6-134.1,544.7-278.6l544.7-262.1l37.1,76.4c20.6,41.3,447.8,928.5,951.2,1972.6l914.1,1898.4L8503.1,1685c-216.7,107.3-414.7,202.2-441.6,212.5C8016.1,1916.1,8005.8,1901.7,7851,1581.9z"/><path d="M5767-2173.6c0-4.1-18.6-284.7-41.3-625.2s-41.3-670.6-41.3-734.6c0-136.2,35.1-181.6,109.4-148.6c61.9,28.9,1077.1,951.2,1077.1,978.1c0,12.4-239.4,138.2-532.4,278.6C5863.9-2198.3,5767-2155,5767-2173.6z"/></g></g>
</svg>